<svg version="1.1" id="Layer_1" xmlns="http://www.w3.org/2000/svg" xmlns:xlink="http://www.w3.org/1999/xlink" x="0px" y="0px"
	 width="100%" viewBox="0 0 498 262" enable-background="new 0 0 498 262" xml:space="preserve">
<path fill="#000000" opacity="1.000000" stroke="none" 
	d="
M296.000000,263.000000 
	C197.333328,263.000000 99.166664,263.000000 1.000000,263.000000 
	C1.000000,175.666672 1.000000,88.333336 1.000000,1.000000 
	C167.000000,1.000000 333.000000,1.000000 499.000000,1.000000 
	C499.000000,88.333336 499.000000,175.666672 499.000000,263.000000 
	C431.500000,263.000000 364.000000,263.000000 296.000000,263.000000 
M339.324432,164.576889 
	C330.615479,161.101440 321.906525,157.625992 313.311920,153.200195 
	C313.311920,119.438789 313.311920,85.677383 313.311920,51.889465 
	C291.664337,51.889465 270.623566,51.889465 249.098770,51.889465 
	C249.098770,66.330101 249.098770,80.362274 249.098770,95.866844 
	C239.885880,81.497604 231.412048,68.449020 223.158005,55.262848 
	C221.545425,52.686710 219.840530,51.733253 216.804764,51.760609 
	C199.978851,51.912209 183.150101,51.913818 166.324249,51.758781 
	C163.300995,51.730923 161.551636,52.618034 159.939240,55.205799 
	C153.434723,65.644928 146.681305,75.928963 139.247055,86.349266 
	C130.055023,82.291519 120.876778,78.202126 111.664642,74.190559 
	C107.603828,72.422226 103.172417,69.767349 99.391022,74.023605 
	C96.925560,76.798668 100.111526,81.373566 106.674271,84.586533 
	C115.413399,88.864983 124.267769,92.908043 132.859573,97.706177 
	C110.764145,132.208450 88.668724,166.710724 66.382034,201.511673 
	C67.411530,201.773590 67.844398,201.979691 68.277466,201.980087 
	C87.925354,201.998215 107.573883,202.063187 127.219902,201.872238 
	C128.724274,201.857620 130.751419,200.356476 131.612839,198.972107 
	C135.471085,192.771606 138.892609,186.299973 142.724564,180.082001 
	C143.507065,178.812241 145.373474,177.427155 146.746994,177.420135 
	C176.551102,177.268036 206.356262,177.276443 236.160675,177.394470 
	C237.485352,177.399719 239.461411,178.399765 240.020218,179.501419 
	C243.704727,186.765076 250.243225,192.806839 249.427872,201.920898 
	C250.503632,202.091522 251.142090,202.281754 251.780396,202.281326 
	C295.236511,202.253159 338.692627,202.209702 382.680786,202.550262 
	C385.175323,203.760361 387.722198,204.874329 390.154572,206.198624 
	C397.359375,210.121185 404.508484,214.145905 411.700928,218.091293 
	C415.054962,219.931122 417.532318,218.249985 419.303894,215.626526 
	C421.084015,212.990372 420.645355,210.400116 418.195953,208.102509 
	C416.271027,206.296844 414.616364,204.203049 413.818726,202.291534 
	C417.732574,202.291534 421.646393,202.291534 425.495575,202.291534 
	C425.495575,189.388535 425.495575,177.209854 425.495575,164.919418 
	C396.730255,164.919418 368.336578,164.919418 339.324432,164.576889 
z"/>
<path fill="#FEFEFE" opacity="1.000000" stroke="none" 
	d="
M382.148743,202.167526 
	C338.692627,202.209702 295.236511,202.253159 251.780396,202.281326 
	C251.142090,202.281754 250.503632,202.091522 249.427872,201.920898 
	C250.243225,192.806839 243.704727,186.765076 240.020218,179.501419 
	C239.461411,178.399765 237.485352,177.399719 236.160675,177.394470 
	C206.356262,177.276443 176.551102,177.268036 146.746994,177.420135 
	C145.373474,177.427155 143.507065,178.812241 142.724564,180.082001 
	C138.892609,186.299973 135.471085,192.771606 131.612839,198.972107 
	C130.751419,200.356476 128.724274,201.857620 127.219902,201.872238 
	C107.573883,202.063187 87.925354,201.998215 68.277466,201.980087 
	C67.844398,201.979691 67.411530,201.773590 66.382034,201.511673 
	C88.668724,166.710724 110.764145,132.208450 133.300827,97.468445 
	C148.860886,103.506393 163.979691,109.782074 178.997894,116.389282 
	C174.547653,124.289787 170.198044,131.858765 165.686478,139.709564 
	C183.133575,139.709564 200.022934,139.709564 217.300522,139.709564 
	C214.981796,135.476929 212.924728,131.721893 211.256714,127.941444 
	C223.759598,132.033478 235.836533,136.263565 247.994064,140.247650 
	C287.383606,153.155853 325.639648,168.697693 361.729828,189.231934 
	C368.724945,193.211945 375.351929,197.838959 382.148743,202.167526 
z"/>
<path fill="#FEFEFE" opacity="1.000000" stroke="none" 
	d="
M140.019791,86.270271 
	C146.681305,75.928963 153.434723,65.644928 159.939240,55.205799 
	C161.551636,52.618034 163.300995,51.730923 166.324249,51.758781 
	C183.150101,51.913818 199.978851,51.912209 216.804764,51.760609 
	C219.840530,51.733253 221.545425,52.686710 223.158005,55.262848 
	C231.412048,68.449020 239.885880,81.497604 249.098770,95.866844 
	C249.098770,80.362274 249.098770,66.330101 249.098770,51.889465 
	C270.623566,51.889465 291.664337,51.889465 313.311920,51.889465 
	C313.311920,85.677383 313.311920,119.438789 312.856232,153.684982 
	C311.751801,154.028915 311.074036,153.965759 310.458466,153.736053 
	C283.601562,143.714325 256.720642,133.755966 229.913788,123.601921 
	C220.183807,119.916344 210.632477,115.759148 200.953430,111.475632 
	C197.893829,105.744766 194.880447,100.355423 191.630600,94.543198 
	C189.330994,98.498459 187.418320,101.788216 185.133698,105.096809 
	C178.747620,102.841362 172.648193,100.767036 166.739258,98.246193 
	C157.763351,94.416931 148.919647,90.277786 140.019791,86.270271 
z"/>
<path fill="#DE7C84" opacity="1.000000" stroke="none" 
	d="
M200.999634,111.817139 
	C210.632477,115.759148 220.183807,119.916344 229.913788,123.601921 
	C256.720642,133.755966 283.601562,143.714325 310.458466,153.736053 
	C311.074036,153.965759 311.751801,154.028915 312.799072,154.160156 
	C321.906525,157.625992 330.615479,161.101440 339.802795,165.069672 
	C359.871552,175.610382 379.448669,185.684387 399.062347,195.686646 
	C403.591187,197.996201 408.245239,200.060242 412.841644,202.237244 
	C414.616364,204.203049 416.271027,206.296844 418.195953,208.102509 
	C420.645355,210.400116 421.084015,212.990372 419.303894,215.626526 
	C417.532318,218.249985 415.054962,219.931122 411.700928,218.091293 
	C404.508484,214.145905 397.359375,210.121185 390.154572,206.198624 
	C387.722198,204.874329 385.175323,203.760361 382.414764,202.358887 
	C375.351929,197.838959 368.724945,193.211945 361.729828,189.231934 
	C325.639648,168.697693 287.383606,153.155853 247.994064,140.247650 
	C235.836533,136.263565 223.759598,132.033478 210.932449,127.804321 
	C199.845581,123.814331 189.472046,119.936043 179.098495,116.057755 
	C163.979691,109.782074 148.860886,103.506393 133.407349,97.141472 
	C124.267769,92.908043 115.413399,88.864983 106.674271,84.586533 
	C100.111526,81.373566 96.925560,76.798668 99.391022,74.023605 
	C103.172417,69.767349 107.603828,72.422226 111.664642,74.190559 
	C120.876778,78.202126 130.055023,82.291519 139.633423,86.309769 
	C148.919647,90.277786 157.763351,94.416931 166.739258,98.246193 
	C172.648193,100.767036 178.747620,102.841362 185.268829,105.436966 
	C190.850479,107.777916 195.925064,109.797531 200.999634,111.817139 
z"/>
<path fill="#FEFEFE" opacity="1.000000" stroke="none" 
	d="
M413.330200,202.264389 
	C408.245239,200.060242 403.591187,197.996201 399.062347,195.686646 
	C379.448669,185.684387 359.871552,175.610382 340.112000,165.240936 
	C368.336578,164.919418 396.730255,164.919418 425.495575,164.919418 
	C425.495575,177.209854 425.495575,189.388535 425.495575,202.291534 
	C421.646393,202.291534 417.732574,202.291534 413.330200,202.264389 
z"/>
<path fill="#040303" opacity="1.000000" stroke="none" 
	d="
M178.997894,116.389282 
	C189.472046,119.936043 199.845581,123.814331 210.543396,127.829742 
	C212.924728,131.721893 214.981796,135.476929 217.300522,139.709564 
	C200.022934,139.709564 183.133575,139.709564 165.686478,139.709564 
	C170.198044,131.858765 174.547653,124.289787 178.997894,116.389282 
z"/>
<path fill="#130F0F" opacity="1.000000" stroke="none" 
	d="
M200.953430,111.475632 
	C195.925064,109.797531 190.850479,107.777916 185.640778,105.418137 
	C187.418320,101.788216 189.330994,98.498459 191.630600,94.543198 
	C194.880447,100.355423 197.893829,105.744766 200.953430,111.475632 
z"/>
</svg>